<?xml version="1.0" standalone="no"?>
<!DOCTYPE svg PUBLIC "-//W3C//DTD SVG 20010904//EN"
 "http://www.w3.org/TR/2001/REC-SVG-20010904/DTD/svg10.dtd">
<svg version="1.0" xmlns="http://www.w3.org/2000/svg"
 width="700.000000pt" height="700.000000pt" viewBox="0 0 700.000000 700.000000"
 preserveAspectRatio="xMidYMid meet">
<metadata>
Created by potrace 1.14, written by Peter Selinger 2001-2017
</metadata>
<g transform="translate(0.000000,700.000000) scale(0.100000,-0.100000)"
fill="#000000" stroke="none">
<path d="M1099 5681 c-1 -3 -3 -671 -4 -1483 0 -813 -5 -1481 -9 -1485 -208
-206 -532 -543 -555 -577 -35 -51 -75 -150 -86 -211 -46 -269 136 -536 409
-599 86 -20 5203 -21 5289 -1 71 17 170 63 219 103 81 64 165 194 182 277 4
17 9 41 11 55 17 81 0 203 -40 294 -42 94 -41 93 -604 662 -3 2 -5 671 -5
1487 l-1 1482 -2402 1 c-1322 1 -2404 -1 -2404 -5z m4369 -1633 l-3 -1203
-1967 0 -1968 0 0 1202 0 1203 1970 0 1970 0 -2 -1202z m375 -1888 c137 -135
256 -255 265 -268 24 -36 18 -93 -13 -119 l-26 -23 -2565 0 c-1740 0 -2572 3
-2585 10 -20 11 -46 57 -43 78 1 6 2 20 3 30 0 9 120 134 265 277 l264 261
2093 -1 2092 0 250 -245z"/>
<path d="M3496 5008 c-7 -31 -47 -275 -52 -313 -2 -16 -6 -41 -9 -55 -5 -29
-15 -86 -20 -115 -1 -11 -10 -65 -20 -120 -9 -55 -18 -109 -19 -120 -2 -11 -6
-33 -9 -50 -4 -16 -9 -50 -13 -75 -4 -25 -8 -54 -10 -65 -11 -67 -15 -92 -18
-110 -2 -11 -6 -33 -9 -50 -3 -16 -9 -46 -11 -65 -3 -19 -8 -46 -11 -60 -3
-14 -7 -45 -10 -70 -3 -25 -7 -52 -10 -60 -3 -13 -11 -55 -19 -115 -2 -11 -8
-47 -14 -80 -6 -33 -13 -76 -16 -95 -3 -19 -7 -44 -10 -55 -2 -11 -7 -40 -10
-65 -3 -25 -12 -80 -20 -123 -7 -43 -10 -79 -7 -81 4 -3 77 -4 163 -4 l157 0
5 27 c7 33 84 499 91 549 3 20 8 48 11 62 8 43 12 64 79 470 36 217 68 407 70
423 12 66 15 89 35 207 28 173 30 182 35 208 l5 22 -165 0 c-163 0 -165 0
-169 -22z"/>
<path d="M2564 4498 c-86 -105 -106 -129 -263 -316 l-112 -133 48 -59 c43 -52
338 -407 388 -467 l20 -23 95 76 c52 41 105 84 118 95 l22 19 -146 175 c-80
96 -144 181 -141 188 3 6 67 86 142 177 75 91 139 168 141 171 3 6 -220 189
-231 189 -2 0 -39 -42 -81 -92z"/>
<path d="M4238 4502 c-59 -48 -109 -89 -112 -93 -3 -3 13 -27 35 -55 61 -74
102 -123 123 -147 59 -69 126 -155 126 -162 0 -4 -65 -85 -145 -181 -145 -173
-145 -174 -124 -191 12 -10 26 -23 33 -28 6 -6 50 -41 97 -78 l87 -67 33 42
c88 107 346 417 398 477 25 28 25 28 9 46 -7 7 -29 33 -49 57 -31 37 -175 211
-227 273 -124 150 -164 195 -170 194 -4 0 -55 -40 -114 -87z"/>
</g>
</svg>
